# xmcd
#
# Track frame offsets: 
#        150
#        12453
#        26174
#        36221
#        44517
#        67705
#        93847
#        115380
#        152931
#        172520
#        190973
#        205313
#        215953
#        239014
#
# Disc length: 3628 seconds
#
# Revision: 1
# Processed by: cddbd v1.5.2PL0 Copyright (c) Steve Scherf et al.
# Submitted via: ExactAudioCopy v1.0b3
#
DISCID=c50e2a0e
DTITLE=Mikko Innanen, Jaak Soo‰‰r and Han Bennink - Spring Odyssey
DYEAR=2006
DGENRE=Jazz
TTITLE0=South
TTITLE1=Far
TTITLE2=Away
TTITLE3=Grey
TTITLE4=Sea
TTITLE5=Ahead
TTITLE6=Trinkle Tinkle
TTITLE7=Floating
TTITLE8=Bermuda
TTITLE9=Delta
TTITLE10=Green
TTITLE11=Dreams
TTITLE12=Soon
TTITLE13=Reality
EXTD=YEAR: 2006
EXTT0=
EXTT1=
EXTT2=
EXTT3=
EXTT4=
EXTT5=
EXTT6=
EXTT7=
EXTT8=
EXTT9=
EXTT10=
EXTT11=
EXTT12=
EXTT13=
PLAYORDER=
